<svg preserveAspectRatio="none" width="100%" height="100%" overflow="visible" style="display: block;" viewBox="0 0 23.0481 20.1667" fill="none" xmlns="http://www.w3.org/2000/svg">
<g id="heart" clip-path="url(#clip0_0_188)">
<path id="8542029_heart_love_like_icon" d="M20.8086 1.37845C19.5929 0.39409 18.0479 -0.0904764 16.4878 0.0232096C14.9276 0.136896 13.4692 0.840305 12.409 1.99051L11.5218 2.9045L10.6347 1.99051C9.57445 0.840305 8.11608 0.136896 6.55591 0.0232096C4.99574 -0.0904764 3.45081 0.39409 2.23503 1.37845C1.57181 1.95122 1.03198 2.65288 0.648368 3.44077C0.264752 4.22867 0.0453575 5.08634 0.00351944 5.96166C-0.0383186 6.83698 0.0982739 7.71167 0.404995 8.53256C0.711716 9.35345 1.18216 10.1034 1.78773 10.7368L10.5027 19.7314C10.6345 19.869 10.7927 19.9785 10.9679 20.0534C11.1431 20.1282 11.3317 20.1668 11.5222 20.1668C11.7127 20.1668 11.9013 20.1282 12.0765 20.0534C12.2517 19.9785 12.4099 19.869 12.5417 19.7314L21.2522 10.7376C21.8586 10.1046 22.3299 9.3549 22.6373 8.53403C22.9447 7.71315 23.0818 6.8383 23.0403 5.96274C22.9988 5.08718 22.7795 4.22922 22.3959 3.4411C22.0122 2.65298 21.4722 1.95119 20.8086 1.37845Z" fill="var(--fill-0, #F5F5F5)"/>
</g>
<defs>
<clipPath id="clip0_0_188">
<rect width="23.0481" height="20.1667" fill="white"/>
</clipPath>
</defs>
</svg>
