<svg preserveAspectRatio="none" width="100%" height="100%" overflow="visible" style="display: block;" viewBox="0 0 18.6779 19.6197" fill="none" xmlns="http://www.w3.org/2000/svg">
<path id="Vector" d="M8.18631 19.6197C7.74486 19.6197 7.3649 19.4725 7.0464 19.1782C6.72791 18.8839 6.53564 18.5242 6.46959 18.0991L6.24887 16.4805C6.03632 16.3988 5.8362 16.3007 5.6485 16.1862C5.46081 16.0718 5.27671 15.9492 5.09621 15.8184L3.57568 16.456C3.16694 16.6358 2.7582 16.6522 2.34946 16.505C1.94071 16.3579 1.62189 16.0963 1.393 15.7203L0.240341 13.7092C0.0114447 13.3332 -0.0539541 12.9326 0.0441443 12.5075C0.142243 12.0824 0.362964 11.7309 0.706308 11.453L2.00611 10.472C1.98976 10.3576 1.98159 10.247 1.98159 10.1404V9.47826C1.98159 9.37232 1.98976 9.26212 2.00611 9.14767L0.706308 8.16669C0.362964 7.88874 0.142243 7.53722 0.0441443 7.11213C-0.0539541 6.68704 0.0114447 6.28647 0.240341 5.91043L1.393 3.89941C1.62189 3.52337 1.94071 3.26177 2.34946 3.11462C2.7582 2.96748 3.16694 2.98382 3.57568 3.16367L5.09621 3.80131C5.27606 3.67051 5.46408 3.54789 5.66027 3.43344C5.85647 3.31899 6.05267 3.2209 6.24887 3.13915L6.46959 1.52052C6.53498 1.09543 6.72726 0.735738 7.0464 0.441443C7.36555 0.147148 7.74552 0 8.18631 0H10.4916C10.9331 0 11.3134 0.147148 11.6325 0.441443C11.9516 0.735738 12.1436 1.09543 12.2083 1.52052L12.4291 3.13915C12.6416 3.2209 12.8421 3.31899 13.0304 3.43344C13.2188 3.54789 13.4025 3.67051 13.5817 3.80131L15.1022 3.16367C15.511 2.98382 15.9197 2.96748 16.3285 3.11462C16.7372 3.26177 17.056 3.52337 17.2849 3.89941L18.4376 5.91043C18.6665 6.28647 18.7319 6.68704 18.6338 7.11213C18.5357 7.53722 18.315 7.88874 17.9716 8.16669L16.6718 9.14767C16.6882 9.26212 16.6963 9.37264 16.6963 9.47924V10.1404C16.6963 10.247 16.68 10.3576 16.6473 10.472L17.9471 11.453C18.2904 11.7309 18.5112 12.0824 18.6093 12.5075C18.7074 12.9326 18.642 13.3332 18.4131 13.7092L17.2359 15.7203C17.007 16.0963 16.6882 16.3579 16.2794 16.505C15.8707 16.6522 15.4619 16.6358 15.0532 16.456L13.5817 15.8184C13.4019 15.9492 13.2138 16.0718 13.0177 16.1862C12.8215 16.3007 12.6253 16.3988 12.4291 16.4805L12.2083 18.0991C12.1429 18.5242 11.951 18.8839 11.6325 19.1782C11.314 19.4725 10.9337 19.6197 10.4916 19.6197H8.18631ZM8.35798 17.6577H10.2954L10.6388 15.0581C11.1456 14.9273 11.6158 14.7354 12.0494 14.4823C12.483 14.2292 12.8793 13.9224 13.2384 13.5621L15.6663 14.5676L16.6228 12.8999L14.5136 11.3058C14.5954 11.0769 14.6526 10.8359 14.6853 10.5829C14.718 10.3298 14.7344 10.0721 14.7344 9.80984C14.7344 9.54759 14.718 9.29024 14.6853 9.0378C14.6526 8.78536 14.5954 8.54404 14.5136 8.31384L16.6228 6.71974L15.6663 5.05207L13.2384 6.0821C12.8787 5.70605 12.4824 5.39149 12.0494 5.13839C11.6165 4.8853 11.1463 4.69303 10.6388 4.56157L10.3199 1.96197H8.3825L8.03916 4.56157C7.53232 4.69237 7.06243 4.88464 6.62949 5.13839C6.19655 5.39214 5.7999 5.69853 5.43955 6.05757L3.01162 5.05207L2.05516 6.71974L4.16427 8.28931C4.08253 8.53456 4.0253 8.7798 3.9926 9.02505C3.9599 9.27029 3.94355 9.53189 3.94355 9.80984C3.94355 10.0714 3.9599 10.3249 3.9926 10.5701C4.0253 10.8153 4.08253 11.0606 4.16427 11.3058L2.05516 12.8999L3.01162 14.5676L5.43955 13.5376C5.79925 13.9136 6.19589 14.2285 6.62949 14.4823C7.06308 14.736 7.53297 14.928 8.03916 15.0581L8.35798 17.6577ZM9.38801 13.2433C10.3363 13.2433 11.1456 12.9081 11.8159 12.2378C12.4863 11.5674 12.8215 10.7581 12.8215 9.80984C12.8215 8.86155 12.4863 8.05224 11.8159 7.3819C11.1456 6.71156 10.3363 6.37639 9.38801 6.37639C8.42338 6.37639 7.61014 6.71156 6.94831 7.3819C6.28647 8.05224 5.95522 8.86155 5.95457 9.80984C5.95392 10.7581 6.28516 11.5674 6.94831 12.2378C7.61145 12.9081 8.42469 13.2433 9.38801 13.2433Z" fill="var(--fill-0, #62BB81)"/>
</svg>
