<svg preserveAspectRatio="none" width="100%" height="100%" overflow="visible" style="display: block;" viewBox="0 0 46.6667 46.6667" fill="none" xmlns="http://www.w3.org/2000/svg">
<g id="image 1 [Vectorized]" clip-path="url(#clip0_0_77)">
<path id="Vector" d="M22.0933 0H24.5741C24.7885 0.0767897 25.2946 0.084033 25.5322 0.0990655C25.8282 0.11929 26.1238 0.148444 26.4179 0.186487C27.4278 0.326963 28.4279 0.531795 29.4116 0.79973C35.754 2.54069 41.0794 6.85428 44.0993 12.6968C45.2081 14.8527 45.9769 17.167 46.3789 19.5577C46.4573 20.0384 46.5006 20.505 46.5625 20.9852C46.5928 21.2219 46.5906 21.8596 46.6667 22.0462V24.6463C46.5824 24.8897 46.5972 25.3212 46.5703 25.5851C46.5439 25.8421 46.5202 26.0946 46.4869 26.3519C46.3488 27.3946 46.1401 28.4268 45.8623 29.4412C44.1504 35.6433 39.972 40.8728 34.3011 43.9118C32.1107 45.0939 29.7427 45.9129 27.2897 46.336C26.7955 46.4256 26.2981 46.4969 25.7988 46.5502C25.5764 46.5742 24.9156 46.609 24.7413 46.6667H21.8607C21.6665 46.6008 21.1379 46.5776 20.9044 46.5502C20.3687 46.4871 19.8349 46.4094 19.3035 46.3171C17.0412 45.92 14.8511 45.1865 12.8059 44.1412C6.90238 41.1432 2.54115 35.7893 0.798763 29.4016C0.53501 28.4325 0.333708 27.4474 0.196097 26.4526C0.157155 26.1605 0.128561 25.8711 0.0974372 25.5799C0.0708971 25.3317 0.0842962 24.799 0 24.582V22.1083C0.0719542 21.9253 0.0861303 21.1588 0.107883 20.9212C0.149891 20.5045 0.204011 20.0891 0.270175 19.6755C0.673317 17.1686 1.48508 14.7448 2.67313 12.5008C5.6764 6.78861 10.9017 2.56724 17.1176 0.831626C18.1625 0.547775 19.2246 0.33144 20.2973 0.183965C20.5722 0.147808 20.8482 0.119997 21.1248 0.100571C21.3654 0.0848262 21.8779 0.0764117 22.0933 0ZM15.3626 5.64446C15.6786 6.15793 15.9863 6.6765 16.2856 7.19993C16.5413 7.64376 16.9242 8.12991 16.7911 8.66954C16.7013 9.03367 16.5307 9.24381 16.2066 9.42965C15.2459 9.98054 14.6568 8.33791 14.3101 7.72557C14.083 7.32446 13.7765 6.80452 13.6068 6.40639C13.3922 6.59798 13.0773 6.78631 12.8339 6.95561C12.4109 7.25122 11.9954 7.55736 11.5876 7.87372C10.4421 8.7544 9.3978 9.75942 8.47385 10.8703C8.1483 11.2661 7.88564 11.6594 7.57627 12.0548C8.12242 12.3423 8.69705 12.7017 9.23795 13.0074C9.4886 13.149 10.1219 13.4941 10.3145 13.6565C10.4191 13.7448 10.4958 13.8615 10.5355 13.9924C10.5808 14.1376 10.606 14.4085 10.5245 14.5465C10.3161 14.8996 9.84006 15.195 9.42341 15.0743C9.19985 15.0096 8.99573 14.9087 8.79211 14.7973C8.10009 14.4187 7.40391 14.0475 6.7125 13.6678C6.67842 13.6491 6.64264 13.6237 6.61056 13.6017C6.33491 14.1421 6.09287 14.5968 5.84527 15.154C5.21789 16.5982 4.7322 18.0999 4.39503 19.6381C4.29737 20.0825 4.12815 20.9228 4.09366 21.3766L5.89832 21.3789C6.67354 21.3786 7.82241 21.2386 7.79233 22.4003C7.78383 22.6623 7.67275 22.9104 7.48303 23.0913C7.12202 23.4293 6.37098 23.3386 5.89354 23.3381L3.88963 23.3361C3.9138 23.7378 3.91929 24.1368 3.93119 24.5376C3.99171 26.5793 4.29568 28.6428 5.1671 30.5081C5.25989 30.7066 5.34928 30.9076 5.43623 31.1092C6.19154 31.0791 7.07745 31.0999 7.84387 31.1001L12.1253 31.1008H16.916C17.7238 31.1008 18.6473 31.0794 19.4479 31.1053C19.4049 30.501 19.4358 29.9029 19.463 29.2984C19.5185 28.1094 19.6191 26.9227 19.7646 25.7412C20.3599 20.7156 21.4242 15.7631 22.57 10.8387C22.6613 10.4465 23.1834 8.11039 23.3121 7.95095L23.3509 7.9484C23.4149 8.0817 23.4172 8.15051 23.4653 8.2765C24.5788 12.6293 25.5195 17.0245 26.2849 21.4517C26.7046 23.975 27.0598 26.5419 27.1911 29.0981C27.2093 29.4531 27.2797 30.8342 27.2118 31.1017C30.363 31.0662 33.5843 31.101 36.74 31.1008L39.7177 31.1001C40.0452 31.0999 40.9224 31.0803 41.218 31.1215C41.4424 30.6282 41.6685 30.1381 41.8555 29.6329C42.5391 27.786 42.7335 25.7993 42.7515 23.8424C42.7531 23.6735 42.7581 23.5029 42.7741 23.3338L40.9334 23.3383C40.5519 23.3393 40.2072 23.3536 39.8316 23.3062C38.7889 23.1752 38.8368 21.473 39.8626 21.4036C40.8169 21.339 41.8232 21.3927 42.7832 21.3723C42.7189 21.1391 42.6872 20.8137 42.6483 20.5687C42.5911 20.2064 42.5216 19.8463 42.4396 19.4889C42.1344 18.1122 41.6748 16.7186 41.1343 15.4171C41.0318 15.1704 40.3783 13.7345 40.2402 13.6407C40.031 13.7168 39.6639 13.9284 39.4591 14.0407C39.0683 14.2559 38.6761 14.4688 38.2826 14.6793C37.769 14.9553 37.3106 15.2215 36.7149 14.9387C36.0696 14.6324 36.1601 13.5397 36.7507 13.2086C37.5252 12.7743 38.302 12.2594 39.0895 11.854C38.6973 11.4058 38.3369 10.8949 37.9176 10.4226C36.4246 8.74034 34.9335 7.59377 33.0461 6.40637C32.9558 6.64519 32.823 6.87638 32.6993 7.10017C32.4671 7.52072 32.2412 7.94252 32.0177 8.36799C31.7518 8.86947 31.3316 9.7673 30.6118 9.48992C30.0209 9.26217 29.6153 8.64537 29.9193 8.02273C30.3178 7.20547 30.8745 6.44123 31.2863 5.635C29.0233 4.53109 26.7221 4.00944 24.2065 3.91369C23.9023 3.90211 23.0838 3.86477 22.7994 3.90615C22.2086 3.94023 21.6906 3.9542 21.0905 4.01718C19.1004 4.21871 17.1614 4.76957 15.3626 5.64446ZM23.3315 13.7754C23.3092 13.9426 23.2873 14.1462 23.2552 14.3091C23.1488 14.997 23.0804 15.8118 22.992 16.5181L22.3294 21.8891C22.0997 23.749 21.8831 25.6102 21.6797 27.4732C21.5926 28.3133 21.4913 29.1785 21.4412 30.0209C21.4346 30.5767 21.3427 31.2131 21.4888 31.7554C21.9875 33.6059 25.0109 33.4252 25.2214 31.5016C25.3269 30.5398 25.1891 29.4294 25.0899 28.4601C25.0109 27.6272 24.9209 26.7953 24.8197 25.9647C24.518 23.3272 24.2015 20.6912 23.8704 18.0571L23.5234 15.3456C23.4938 15.1072 23.4379 14.3541 23.3769 14.1559C23.3759 13.9918 23.3632 13.9354 23.3315 13.7754ZM26.456 33.0383C26.2427 33.7408 25.9333 34.3082 25.2675 34.6678C25.0384 34.7899 24.7914 34.8754 24.536 34.9212C24.0074 35.021 23.6264 34.9863 23.1132 35.0027C21.53 35.0533 20.3141 34.7715 19.8401 33.0798C19.7974 33.0508 19.8152 33.0509 19.777 33.0524C19.3223 33.0809 18.6639 33.0609 18.1971 33.0606L15.3586 33.0597L6.45948 33.0693C6.46659 33.1582 6.82794 33.6943 6.89999 33.8019C7.33476 34.4618 7.80616 35.0966 8.312 35.7036C11.094 39.03 15.0341 41.4789 19.2967 42.3432C21.445 42.795 23.6537 42.885 25.8314 42.6091C26.4184 42.5293 26.9869 42.4339 27.5646 42.3019C27.6728 42.2771 27.7974 42.2472 27.9059 42.2304C28.8064 41.9788 29.4982 41.789 30.3791 41.4436C33.5512 40.1901 36.3164 38.086 38.3697 35.3623C38.7295 34.879 39.0667 34.3791 39.3805 33.8646C39.5149 33.644 39.7384 33.2274 39.8736 33.0381C39.6352 33.0764 39.2754 33.0629 39.0264 33.0625L37.7125 33.0606L33.0094 33.0597L28.5031 33.0593L27.2483 33.0618C27.022 33.0625 26.667 33.0748 26.456 33.0383Z" fill="var(--fill-0, #9F9F9F)"/>
<path id="Vector_2" d="M23.3315 13.7754C23.3632 13.9354 23.376 13.9918 23.3769 14.1559C23.3322 14.223 23.3566 14.2037 23.3641 14.3202C23.2967 14.3319 23.3233 14.3323 23.2552 14.3091C23.2873 14.1462 23.3092 13.9426 23.3315 13.7754Z" fill="var(--fill-0, #9F9F9F)"/>
</g>
<defs>
<clipPath id="clip0_0_77">
<rect width="46.6667" height="46.6667" fill="white"/>
</clipPath>
</defs>
</svg>

