<svg width="22" height="22" viewBox="0 0 22 22" fill="none" xmlns="http://www.w3.org/2000/svg">
<path d="M8.42665 3.67582C9.03824 3.67632 9.63596 3.8581 10.1443 4.19819C10.6526 4.53828 11.0487 5.02141 11.2825 5.58654C11.5163 6.15167 11.5774 6.77343 11.4579 7.37325C11.3385 7.97306 11.0439 8.52401 10.6115 8.95647C10.179 9.38893 9.62806 9.68349 9.02824 9.80293C8.42843 9.92237 7.80667 9.86132 7.24154 9.6275C6.67641 9.39368 6.19327 8.99759 5.85318 8.48928C5.51309 7.98097 5.33131 7.38325 5.33082 6.77166C5.33049 6.36501 5.41034 5.9623 5.56581 5.58654C5.72127 5.21079 5.94929 4.86938 6.23683 4.58184C6.52437 4.2943 6.86579 4.06627 7.24154 3.91081C7.61729 3.75535 8.02001 3.6755 8.42665 3.67582ZM8.42665 2.43832C7.5696 2.43832 6.73179 2.69247 6.01918 3.16862C5.30657 3.64478 4.75115 4.32155 4.42317 5.11336C4.09519 5.90518 4.00938 6.77646 4.17658 7.61705C4.34379 8.45763 4.7565 9.22976 5.36252 9.83579C5.96855 10.4418 6.74068 10.8545 7.58126 11.0217C8.42185 11.1889 9.29313 11.1031 10.0849 10.7751C10.8768 10.4472 11.5535 9.89174 12.0297 9.17913C12.5058 8.46652 12.76 7.62871 12.76 6.77166C12.76 5.62239 12.3034 4.52019 11.4908 3.70753C10.6781 2.89487 9.57592 2.43832 8.42665 2.43832Z" fill="#303030"/>
<path d="M14.6125 19.7633H13.375V16.6717C13.375 15.8513 13.0491 15.0645 12.4689 14.4843C11.8888 13.9042 11.102 13.5783 10.2816 13.5783H6.57079C6.16436 13.578 5.76185 13.6578 5.38626 13.8131C5.01067 13.9684 4.66937 14.1962 4.38186 14.4835C4.09435 14.7707 3.86627 15.1119 3.71066 15.4873C3.55505 15.8628 3.47496 16.2652 3.47496 16.6717V19.7633H2.23746V16.6717C2.23746 15.5224 2.69401 14.4202 3.50666 13.6075C4.31932 12.7949 5.42152 12.3383 6.57079 12.3383H10.2833C11.4326 12.3383 12.5348 12.7949 13.3474 13.6075C14.1601 14.4202 14.6166 15.5224 14.6166 16.6717L14.6125 19.7633Z" fill="#303030"/>
<path d="M16.4683 11.2116L14.8658 9.60914L13.9933 10.4816L16.4683 12.9566L20.8017 8.62331L19.9267 7.75331L16.4683 11.2116Z" fill="#303030"/>
</svg>
