<svg width="22" height="22" viewBox="0 0 22 22" fill="none" xmlns="http://www.w3.org/2000/svg">
<path d="M12.4289 2.25012V2.95027C14.0226 3.17395 15.4732 3.88706 16.5206 4.96175C17.5679 6.03643 18.1434 7.4024 18.144 8.81472V10.1185C18.1455 11.8931 18.835 13.6147 20.0999 15.0019L20.7686 15.7284C20.8951 15.8661 20.9745 16.0324 20.9977 16.2079C21.0209 16.3834 20.9869 16.5611 20.8996 16.7204C20.8123 16.8798 20.6754 17.0143 20.5045 17.1084C20.3336 17.2026 20.1358 17.2525 19.9338 17.2526H2.06965C1.867 17.2529 1.66839 17.2031 1.49682 17.1087C1.32525 17.0144 1.18776 16.8794 1.10027 16.7195C1.01279 16.5595 0.978894 16.3812 1.00252 16.2051C1.02615 16.029 1.10633 15.8624 1.23378 15.7245L1.90247 14.998C3.16683 13.6122 3.85569 11.8917 3.85618 10.1185V8.81375C3.857 7.40159 4.43265 6.03586 5.47995 4.96138C6.52724 3.8869 7.97769 3.17392 9.5713 2.95027V2.25012C9.5713 1.91857 9.72183 1.6006 9.98978 1.36615C10.2577 1.13171 10.6211 1 11.0001 1C11.379 1 11.7424 1.13171 12.0104 1.36615C12.2783 1.6006 12.4289 1.91857 12.4289 2.25012ZM10.6457 4.75036C9.41377 4.75036 8.2323 5.17841 7.36101 5.94038C6.48972 6.70236 5.99994 7.73589 5.99935 8.81375V10.1185C5.99997 11.9838 5.38587 13.8097 4.23065 15.3774H17.774C16.6173 13.81 16.0017 11.9841 16.0008 10.1185V8.81375C16.0002 7.7364 15.5109 6.70331 14.6403 5.94142C13.7698 5.17952 12.5891 4.75114 11.3578 4.75036H10.6457ZM13.861 18.4997C13.8619 18.8283 13.7885 19.1538 13.6453 19.4575C13.502 19.7612 13.2915 20.0371 13.026 20.2694C12.7605 20.5017 12.4451 20.6859 12.098 20.8112C11.7509 20.9366 11.3789 21.0008 11.0034 21C10.628 21.0004 10.2561 20.9362 9.90898 20.8109C9.5619 20.6855 9.24644 20.5016 8.98062 20.2696C8.45157 19.7961 8.15243 19.1619 8.14586 18.4997H13.861Z" fill="#303030"/>
</svg>
