<svg width="22" height="22" viewBox="0 0 22 22" fill="none" xmlns="http://www.w3.org/2000/svg">
<g clip-path="url(#clip0_0_52)">
<path d="M11 1.0997C11 1.0997 4.19502 6.97413 0.392499 10.1553C0.271617 10.2607 0.174216 10.3903 0.106603 10.5357C0.0389902 10.6811 0.00267213 10.8391 0 10.9995C0 11.2924 0.116337 11.5732 0.323418 11.7803C0.530498 11.9874 0.81136 12.1037 1.10422 12.1037H3.2996V19.8041C3.2996 20.097 3.41594 20.3778 3.62302 20.5849C3.8301 20.792 4.11096 20.9083 4.40381 20.9083H7.7004C7.99326 20.9083 8.27412 20.792 8.4812 20.5849C8.68828 20.3778 8.80462 20.097 8.80462 19.8041V15.4003H13.2004V19.8001C13.2004 20.093 13.3167 20.3738 13.5238 20.5809C13.7309 20.788 14.0118 20.9043 14.3046 20.9043H17.6042C17.8971 20.9043 18.1779 20.788 18.385 20.5809C18.5921 20.3738 18.7084 20.093 18.7084 19.8001V12.0997H20.8998C21.1927 12.0997 21.4735 11.9834 21.6806 11.7763C21.8877 11.5692 22.004 11.2883 22.004 10.9955C22.0025 10.8318 21.9637 10.6707 21.8907 10.5242C21.8177 10.3778 21.7122 10.2499 21.5824 10.1503C17.803 6.97413 11 1.0997 11 1.0997Z" fill="#62BB81"/>
</g>
<defs>
<clipPath id="clip0_0_52">
<rect width="22" height="19.8006" fill="white" transform="translate(0 1.0997)"/>
</clipPath>
</defs>
</svg>
