<svg width="22" height="22" viewBox="0 0 22 22" fill="none" xmlns="http://www.w3.org/2000/svg">
<path d="M6.04138 1C4.94608 1.00184 3.89625 1.3787 3.12176 2.04807C2.34727 2.71744 1.91122 3.62477 1.90909 4.57139H3.56178C3.5636 4.00351 3.82542 3.45933 4.29004 3.05778C4.75467 2.65622 5.38431 2.42993 6.04138 2.42836V1Z" fill="#303030"/>
<path d="M6.04136 4.57136V3.14301C5.60341 3.14405 5.18375 3.29488 4.87407 3.56252C4.5644 3.83016 4.38989 4.19286 4.38867 4.57136H6.04136Z" fill="#303030"/>
<path d="M20.091 9.57114H19.0789C18.7372 8.27328 17.9355 7.09987 16.7856 6.21445V2.42836C16.7844 2.04986 16.6099 1.68716 16.3002 1.41952C15.9905 1.15187 15.5709 1.00105 15.1329 1H8.52103C8.08309 1.00105 7.66343 1.15187 7.35375 1.41952C7.04408 1.68716 6.86956 2.04986 6.86835 2.42836V6.21445C6.08843 6.81623 5.46441 7.55361 5.03714 8.37831C4.60987 9.203 4.38901 10.0964 4.38901 11C4.38901 11.9036 4.60987 12.797 5.03714 13.6217C5.46441 14.4464 6.08843 15.1838 6.86835 15.7855V19.5716C6.86956 19.9501 7.04408 20.3128 7.35375 20.5805C7.66343 20.8481 8.08309 20.999 8.52103 21H15.1329C15.5709 20.999 15.9905 20.8481 16.3002 20.5805C16.6099 20.3128 16.7844 19.9501 16.7856 19.5716V15.7855C17.9351 14.9007 18.7367 13.728 19.0789 12.4308H20.091V9.57114ZM8.52103 2.42836H15.1329V5.24929C14.1074 4.80311 12.9751 4.57071 11.827 4.57071C10.6788 4.57071 9.54659 4.80311 8.52103 5.24929V2.42836ZM15.1329 19.5706H8.52103V16.7497C9.54659 17.1959 10.6788 17.4283 11.827 17.4283C12.9751 17.4283 14.1074 17.1959 15.1329 16.7497V19.5706ZM11.8275 15.9993C10.4361 16.0009 9.0908 15.5682 8.03925 14.7806C6.9877 13.9931 6.30069 12.9038 6.10469 11.7132H8.1093C8.43764 11.7121 8.75216 11.5989 8.98423 11.3981C9.21629 11.1974 9.34704 10.9254 9.34795 10.6417V9.92699C9.34795 9.83222 9.39151 9.74133 9.46905 9.67432C9.54659 9.6073 9.65175 9.56965 9.76141 9.56965C9.87107 9.56965 9.97623 9.6073 10.0538 9.67432C10.1313 9.74133 10.1749 9.83222 10.1749 9.92699V12.7837C10.2077 13.238 10.4397 13.6645 10.8235 13.9762C11.2074 14.2879 11.7143 14.4614 12.241 14.4614C12.7677 14.4614 13.2746 14.2879 13.6585 13.9762C14.0424 13.6645 14.2743 13.238 14.3072 12.7837V11.7142H15.9587V10.2858H13.8885C13.56 10.2866 13.2452 10.3998 13.0129 10.6005C12.7805 10.8013 12.6496 11.0734 12.6487 11.3573V12.7857C12.6487 12.8805 12.6052 12.9714 12.5276 13.0384C12.4501 13.1054 12.3449 13.143 12.2353 13.143C12.1256 13.143 12.0204 13.1054 11.9429 13.0384C11.8654 12.9714 11.8218 12.8805 11.8218 12.7857V9.92898C11.8394 9.6851 11.7991 9.44069 11.7032 9.21081C11.6073 8.98094 11.458 8.77047 11.2644 8.59238C11.0708 8.4143 10.8371 8.27237 10.5776 8.17535C10.3181 8.07834 10.0384 8.02828 9.75566 8.02828C9.47293 8.02828 9.1932 8.07834 8.93372 8.17535C8.67423 8.27237 8.44049 8.4143 8.2469 8.59238C8.05331 8.77047 7.90398 8.98094 7.80812 9.21081C7.71226 9.44069 7.67189 9.6851 7.68952 9.92898V10.2858H6.10354C6.26226 9.33754 6.73298 8.44866 7.45963 7.72503C8.18629 7.00141 9.13826 6.47352 10.2022 6.20422C11.2661 5.93493 12.3972 5.93558 13.4607 6.2061C14.5243 6.47662 15.4754 7.00561 16.201 7.73008C16.9265 8.45455 17.3959 9.34397 17.5531 10.2924C17.7104 11.2409 17.5489 12.2084 17.088 13.0798C16.627 13.9512 15.886 14.6898 14.9532 15.2076C14.0204 15.7253 12.935 16.0005 11.8264 16.0002L11.8275 15.9993Z" fill="#303030"/>
</svg>
