<svg width="22" height="22" viewBox="0 0 22 22" fill="none" xmlns="http://www.w3.org/2000/svg">
<path d="M6.59966 1H19.8007C20.1188 1 20.4238 1.10358 20.6487 1.28794C20.8736 1.47231 21 1.72236 21 1.98309V20.0169C21 20.2776 20.8736 20.5277 20.6487 20.7121C20.4238 20.8964 20.1188 21 19.8007 21H2.19933C1.88125 21 1.57619 20.8964 1.35128 20.7121C1.12636 20.5277 1 20.2776 1 20.0169V5.59005C1.00007 5.32934 1.12647 5.07933 1.3514 4.89501L5.75174 1.28805C5.9766 1.10367 6.28161 1.00006 6.59966 1ZM18.6013 2.96618H7.09619L3.39866 5.99705V19.0338H18.6013V2.96618Z" fill="#303030"/>
<path d="M6.59968 6.57317H2.19934V4.60699H5.40035V1.98312H7.799V5.59008C7.799 5.71919 7.76798 5.84702 7.70771 5.9663C7.64744 6.08557 7.5591 6.19395 7.44773 6.28523C7.33636 6.37652 7.20415 6.44894 7.05864 6.49834C6.91313 6.54775 6.75717 6.57317 6.59968 6.57317Z" fill="#303030"/>
<path d="M16.8659 17.9947H5.86565C5.54757 17.9947 5.24252 17.8911 5.0176 17.7067C4.79268 17.5224 4.66633 17.2723 4.66633 17.0116V8.59534H7.06498V16.0285H16.8659V17.9947Z" fill="#303030"/>
<path d="M6.71357 17.7067L5.01772 16.3205L10.1508 12.1129C10.3758 11.9286 10.6808 11.825 10.9988 11.825C11.3168 11.825 11.6218 11.9286 11.8467 12.1129L13.1983 13.2208L16.0168 10.9106L17.7126 12.3006L14.0463 15.306C13.8214 15.4903 13.5164 15.5938 13.1983 15.5938C12.8803 15.5938 12.5753 15.4903 12.3504 15.306L10.9988 14.1941L6.71357 17.7067Z" fill="#303030"/>
</svg>
