<svg width="22" height="22" viewBox="0 0 22 22" fill="none" xmlns="http://www.w3.org/2000/svg">
<path d="M9.92292 20.1666C9.51042 20.1666 9.15536 20.0291 8.85775 19.7541C8.56014 19.4791 8.38047 19.143 8.31875 18.7458L8.1125 17.2333C7.91389 17.1569 7.72689 17.0653 7.5515 16.9583C7.37611 16.8514 7.20408 16.7368 7.03542 16.6146L5.61458 17.2104C5.23264 17.3785 4.85069 17.3937 4.46875 17.2562C4.0868 17.1187 3.78889 16.8743 3.575 16.5229L2.49792 14.6437C2.28403 14.2923 2.22292 13.918 2.31458 13.5208C2.40625 13.1236 2.6125 12.7951 2.93333 12.5354L4.14792 11.6187C4.13264 11.5118 4.125 11.4085 4.125 11.3089V10.6901C4.125 10.5911 4.13264 10.4882 4.14792 10.3812L2.93333 9.46456C2.6125 9.20484 2.40625 8.87637 2.31458 8.47915C2.22292 8.08192 2.28403 7.70762 2.49792 7.35623L3.575 5.47706C3.78889 5.12567 4.0868 4.88123 4.46875 4.74373C4.85069 4.60623 5.23264 4.62151 5.61458 4.78956L7.03542 5.3854C7.20347 5.26317 7.37917 5.14859 7.5625 5.04165C7.74583 4.9347 7.92917 4.84304 8.1125 4.76665L8.31875 3.25415C8.37986 2.85692 8.55953 2.52081 8.85775 2.24581C9.15597 1.97081 9.51103 1.83331 9.92292 1.83331H12.0771C12.4896 1.83331 12.8449 1.97081 13.1432 2.24581C13.4414 2.52081 13.6207 2.85692 13.6812 3.25415L13.8875 4.76665C14.0861 4.84304 14.2734 4.9347 14.4494 5.04165C14.6254 5.14859 14.7971 5.26317 14.9646 5.3854L16.3854 4.78956C16.7674 4.62151 17.1493 4.60623 17.5312 4.74373C17.9132 4.88123 18.2111 5.12567 18.425 5.47706L19.5021 7.35623C19.716 7.70762 19.7771 8.08192 19.6854 8.47915C19.5938 8.87637 19.3875 9.20484 19.0667 9.46456L17.8521 10.3812C17.8674 10.4882 17.875 10.5915 17.875 10.6911V11.3089C17.875 11.4085 17.8597 11.5118 17.8292 11.6187L19.0437 12.5354C19.3646 12.7951 19.5708 13.1236 19.6625 13.5208C19.7542 13.918 19.6931 14.2923 19.4792 14.6437L18.3792 16.5229C18.1653 16.8743 17.8674 17.1187 17.4854 17.2562C17.1035 17.3937 16.7215 17.3785 16.3396 17.2104L14.9646 16.6146C14.7965 16.7368 14.6208 16.8514 14.4375 16.9583C14.2542 17.0653 14.0708 17.1569 13.8875 17.2333L13.6812 18.7458C13.6201 19.143 13.4408 19.4791 13.1432 19.7541C12.8456 20.0291 12.4902 20.1666 12.0771 20.1666H9.92292ZM10.0833 18.3333H11.8937L12.2146 15.9041C12.6882 15.7819 13.1276 15.6026 13.5327 15.3661C13.9379 15.1296 14.3082 14.843 14.6437 14.5062L16.9125 15.4458L17.8062 13.8875L15.8354 12.3979C15.9118 12.184 15.9653 11.9588 15.9958 11.7223C16.0264 11.4858 16.0417 11.245 16.0417 11C16.0417 10.7549 16.0264 10.5145 15.9958 10.2786C15.9653 10.0427 15.9118 9.81717 15.8354 9.60206L17.8062 8.11248L16.9125 6.55415L14.6437 7.51665C14.3076 7.16526 13.9373 6.87131 13.5327 6.63481C13.1282 6.39831 12.6888 6.21865 12.2146 6.09581L11.9167 3.66665H10.1062L9.78542 6.09581C9.3118 6.21804 8.87272 6.3977 8.46817 6.63481C8.06361 6.87192 7.69297 7.15823 7.35625 7.49373L5.0875 6.55415L4.19375 8.11248L6.16458 9.57915C6.08819 9.80831 6.03472 10.0375 6.00417 10.2666C5.97361 10.4958 5.95833 10.7403 5.95833 11C5.95833 11.2444 5.97361 11.4812 6.00417 11.7104C6.03472 11.9396 6.08819 12.1687 6.16458 12.3979L4.19375 13.8875L5.0875 15.4458L7.35625 14.4833C7.69236 14.8347 8.063 15.129 8.46817 15.3661C8.87333 15.6032 9.31242 15.7825 9.78542 15.9041L10.0833 18.3333ZM11.0458 14.2083C11.9319 14.2083 12.6882 13.8951 13.3146 13.2687C13.941 12.6423 14.2542 11.8861 14.2542 11C14.2542 10.1139 13.941 9.35762 13.3146 8.73123C12.6882 8.10484 11.9319 7.79165 11.0458 7.79165C10.1444 7.79165 9.38453 8.10484 8.76608 8.73123C8.14764 9.35762 7.83811 10.1139 7.8375 11C7.83689 11.8861 8.14642 12.6423 8.76608 13.2687C9.38575 13.8951 10.1457 14.2083 11.0458 14.2083Z" fill="#303030"/>
</svg>
