<svg width="22" height="22" viewBox="0 0 22 22" fill="none" xmlns="http://www.w3.org/2000/svg">
<g clip-path="url(#clip0_0_79)">
<path d="M1.63385 20.9991H20.3596C20.4528 20.9991 20.5449 20.9787 20.6294 20.9393C20.7139 20.9 20.7887 20.8426 20.8487 20.7712C20.9086 20.6998 20.9522 20.6162 20.9764 20.5262C21.0006 20.4362 21.0048 20.3419 20.9887 20.2501C20.9887 20.2501 20.7708 19.0116 20.584 17.7108C20.2586 15.4272 17.4714 14.7481 17.1536 14.6783L16.7763 14.5943C16.1396 14.4547 14.953 14.1944 14.3946 14.0227C14.1219 13.9381 13.8695 13.7983 13.653 13.612C13.4366 13.4257 13.2607 13.1969 13.1364 12.9398C15.1171 11.9852 16.1603 9.71198 16.332 7.42268V7.25195H17.0206C17.1899 7.25195 17.3523 7.18467 17.4721 7.06491C17.5918 6.94515 17.6591 6.78272 17.6591 6.61336C17.6591 6.44399 17.5918 6.28157 17.4721 6.16181C17.3523 6.04205 17.1899 5.97477 17.0206 5.97477H16.5895L16.5395 5.47012C16.4644 4.68163 16.1546 3.93376 15.6502 3.32307C15.1458 2.71239 14.4699 2.26692 13.7099 2.04419L12.9779 1.82724V1.63859C12.9779 1.46923 12.9107 1.3068 12.7909 1.18704C12.6711 1.06728 12.5087 1 12.3394 1H9.67573C9.592 0.999877 9.50906 1.01625 9.43165 1.04818C9.35424 1.08011 9.28388 1.12697 9.22459 1.1861C9.16529 1.24522 9.11822 1.31544 9.08606 1.39276C9.0539 1.47008 9.03729 1.55297 9.03717 1.6367V1.82536L8.28259 2.04797C7.52543 2.27068 6.85183 2.71403 6.34781 3.3214C5.8438 3.92877 5.53225 4.67259 5.45294 5.45786L5.40012 5.97571H4.98038C4.89652 5.97571 4.81348 5.99223 4.73601 6.02432C4.65854 6.05641 4.58816 6.10345 4.52886 6.16275C4.46957 6.22205 4.42253 6.29245 4.39044 6.36992C4.35835 6.4474 4.34182 6.53044 4.34182 6.6143C4.34182 6.69816 4.35835 6.7812 4.39044 6.85868C4.42253 6.93615 4.46957 7.00655 4.52886 7.06585C4.58816 7.12515 4.65854 7.17219 4.73601 7.20428C4.81348 7.23637 4.89652 7.25289 4.98038 7.25289H5.69156V7.47267C5.8604 9.71858 6.90267 11.9767 8.86645 12.9342C8.74268 13.193 8.56677 13.4234 8.34976 13.6111C8.13275 13.7987 7.87932 13.9395 7.60536 14.0246C7.04697 14.1962 5.86135 14.4566 5.22467 14.5952L4.84267 14.6801C4.51349 14.7528 1.74043 15.4347 1.41597 17.7118C1.22732 19.0125 1.01227 20.2482 1.01132 20.2511C0.995215 20.3429 0.999398 20.4371 1.02359 20.5271C1.04778 20.6171 1.09138 20.7008 1.15133 20.7722C1.21129 20.8435 1.28615 20.9009 1.37064 20.9403C1.45514 20.9796 1.54723 21 1.64044 21L1.63385 20.9991ZM19.3201 17.8919C19.4144 18.5749 19.5239 19.2389 19.6031 19.7228H18.3288V16.5384C18.5826 16.6789 18.8029 16.8726 18.9748 17.1062C19.1468 17.3399 19.2661 17.6079 19.3248 17.8919H19.3201ZM13.3411 3.27138C13.8574 3.42312 14.3165 3.72592 14.6592 4.1408C15.002 4.55569 15.2127 5.06367 15.2643 5.59935L15.302 5.97666H12.9732V3.15913L13.3411 3.27138ZM11.6961 2.27624V5.9776H10.2992L10.3067 2.27624H11.6961ZM6.72722 5.58709C6.78102 5.05358 6.99264 4.54821 7.33504 4.13556C7.67744 3.72291 8.13508 3.42171 8.6495 3.27044L9.03528 3.1563L9.02868 5.97477H6.6876L6.72722 5.58709ZM6.97057 7.42268V7.251H15.0577V7.37363C14.8795 9.7431 13.5599 12.1343 11.0132 12.1343C8.46652 12.1343 7.14507 9.74405 6.96868 7.42268H6.97057ZM11.0132 13.4115C11.3118 13.4094 11.6097 13.3817 11.9036 13.3284C12.0545 13.6875 12.2667 14.0176 12.5308 14.3038L11.0217 15.53L9.48237 14.2868C9.737 14.0028 9.94288 13.6787 10.0917 13.3275C10.3951 13.3827 10.7029 13.4108 11.0113 13.4115H11.0132ZM7.98548 15.2423C8.13672 15.195 8.28452 15.1373 8.42784 15.0697L10.6255 16.844C10.7392 16.9362 10.881 16.9865 11.0274 16.9865C11.1737 16.9865 11.3156 16.9362 11.4292 16.844L13.5986 15.082C13.7348 15.1448 13.875 15.1986 14.0183 15.2433C14.6286 15.4319 15.8019 15.6875 16.5037 15.8413C16.5037 15.8413 16.9517 15.9413 17.0517 15.9705V19.7228H4.95115V15.9705C5.05113 15.9422 5.5001 15.8413 5.5001 15.8413C6.20091 15.6875 7.37426 15.4272 7.98453 15.2386L7.98548 15.2423ZM2.67799 17.8919C2.73673 17.6077 2.85623 17.3394 3.02831 17.1056C3.2004 16.8718 3.42099 16.678 3.67498 16.5374V19.7219H2.39409C2.47332 19.2389 2.57706 18.5749 2.67704 17.8919H2.67799Z" fill="#303030"/>
</g>
<defs>
<clipPath id="clip0_0_79">
<rect width="19.9966" height="20" fill="white" transform="translate(1.00171 1)"/>
</clipPath>
</defs>
</svg>
